<svg width="200" height="171" viewBox="0 0 200 171" fill="none" xmlns="http://www.w3.org/2000/svg">
<path fill-rule="evenodd" clip-rule="evenodd" d="M7.22408 0.0758551C5.65117 0.234101 4.20843 0.998135 2.63411 2.50677C0.153219 4.884 0.181081 4.76249 0.0562077 13.7331C-0.0771316 23.3352 0.0914877 24.2437 2.46232 26.7068C3.36077 27.6404 4.33153 28.404 4.61938 28.404C4.90722 28.404 5.34146 28.6029 5.5838 28.8456C5.93443 29.1967 25.2894 29.2871 99.9972 29.2871C174.705 29.2871 194.06 29.1967 194.411 28.8456C194.653 28.6029 195.137 28.404 195.486 28.404C195.836 28.404 196.122 28.285 196.122 28.1391C196.123 27.9932 196.599 27.5563 197.18 27.1677C197.761 26.7792 198.236 26.2628 198.237 26.0198C198.238 25.7771 198.384 25.5782 198.562 25.5782C198.741 25.5782 199.148 24.7898 199.468 23.8266C200.268 21.4151 200.13 6.12983 199.296 4.73776C198.567 3.52159 196.212 1.30933 194.908 0.617C193.92 0.092456 185.933 0.0405301 101.055 0.00626694C50.0302 -0.0142203 7.80611 0.0172192 7.22408 0.0758551ZM6.51858 71.0246C3.73433 71.8727 1.88063 73.4265 0.686572 75.9132C0.0791373 77.1785 0.00753196 78.1686 0.000476971 85.3815C-0.00657802 92.694 0.0572659 93.5736 0.693273 94.9187C1.56245 96.7576 1.96458 97.2524 3.52021 98.3983C6.54045 100.623 -0.943127 100.463 99.9718 100.459C200.269 100.454 193.595 100.594 196.44 98.4464C198.058 97.2256 198.475 96.7226 199.308 94.9875C199.915 93.7223 199.987 92.7322 199.994 85.5193C200.001 78.2067 199.937 77.3272 199.301 75.9821C198.43 74.1404 198.042 73.6635 196.406 72.4283C193.618 70.3234 199.587 70.4449 99.8208 70.4672C18.9435 70.4852 8.07703 70.5498 6.51858 71.0246ZM6.51858 141.687C6.13055 141.782 5.6621 142.002 5.47797 142.178C5.29383 142.353 4.90722 142.497 4.61938 142.497C3.65954 142.497 0.855895 145.792 0.386033 147.474C-0.277841 149.847 -0.0252749 164.956 0.698214 166.163C1.49331 167.49 3.88072 169.665 5.27973 170.337C6.43145 170.89 13.0808 170.931 99.9993 170.925C186.443 170.918 193.573 170.873 194.717 170.33C196.11 169.667 198.498 167.495 199.296 166.163C200.02 164.956 200.272 149.847 199.608 147.474C199.138 145.792 196.335 142.497 195.375 142.497C195.087 142.497 194.653 142.298 194.411 142.055C194.06 141.704 174.773 141.604 100.597 141.565C49.2418 141.538 6.9066 141.594 6.51858 141.687Z" fill="white"/>
</svg>
