<svg width="100" height="96" viewBox="0 0 100 96" fill="none" xmlns="http://www.w3.org/2000/svg">
<path fill-rule="evenodd" clip-rule="evenodd" d="M43.2961 1.13611C39.4971 2.90511 34.2391 8.42111 32.8571 12.0841C32.2361 13.7311 31.8261 22.6541 31.8681 33.5841L31.9401 52.2691L35.3681 55.1171L38.7961 57.9661V46.8671C38.7961 40.7631 38.9521 35.7691 39.1421 35.7691C39.3331 35.7691 41.0201 36.5571 42.8921 37.5191C48.2661 40.2821 56.6151 39.8161 61.6691 36.4721C66.5501 33.2421 66.8671 31.4551 62.8541 29.7931C60.4001 28.7771 59.5331 28.8401 57.6311 30.1721C54.7861 32.1651 48.5951 32.2341 44.8811 30.3131C41.6831 28.6591 38.7941 23.3411 38.8001 19.1181C38.8051 15.2021 42.0661 10.1981 45.9071 8.21211C49.8641 6.16511 54.6311 6.79911 59.0431 9.95811C60.8181 11.2291 63.9641 13.0341 66.0331 13.9701C69.5761 15.5721 69.7961 15.5721 69.7921 13.9701C69.7861 11.2631 66.2841 6.24311 62.2611 3.17511C59.2991 0.915114 57.3271 0.287114 52.4261 0.0441144C48.6601 -0.143886 45.1391 0.278114 43.2961 1.13611ZM44.9401 16.0951C44.2261 16.9551 43.7901 18.6961 43.9691 19.9641C44.2701 22.0871 44.8311 22.2851 51.0561 22.4761C55.2011 22.6041 59.5391 23.4461 62.2731 24.6561C68.7511 27.5211 76.1681 34.8971 78.9381 41.2301C80.6881 45.2291 82.1661 47.0361 84.6701 48.2371C86.5251 49.1271 88.3021 49.5961 88.6191 49.2801C88.9351 48.9631 88.6281 46.5821 87.9371 43.9871C83.8391 28.6041 68.7821 16.1451 52.9181 15.0101C47.6591 14.6341 45.9621 14.8641 44.9401 16.0951ZM21.4761 27.6701C15.8311 33.7161 12.1481 41.2021 10.6601 49.6521C8.07713 64.3151 17.8521 86.4311 23.7661 79.3051C24.8541 77.9951 24.5301 76.7471 21.7501 71.5321C15.7161 60.2101 16.5791 45.8911 23.9051 35.7781C26.3751 32.3681 26.8471 30.8411 26.5981 27.0751L26.2961 22.5071L21.4761 27.6701ZM58.0461 43.1161C54.4821 44.2861 53.9561 45.2331 56.3601 46.1551C57.2191 46.4851 61.0901 48.6051 64.9621 50.8661L72.0001 54.9761L68.3691 57.9691C63.3521 62.1051 60.7931 67.5261 60.8111 73.9791C60.8321 81.1191 61.6231 82.1781 65.1881 79.8401C67.5621 78.2831 68.0401 77.2391 68.1981 73.2611C68.3591 69.2051 68.9101 68.0531 72.0761 65.1511C75.1101 62.3711 76.5561 61.7691 80.2051 61.7691C93.4361 61.7691 97.0591 79.6291 84.9871 85.3451C80.6781 87.3851 74.7961 91.8841 74.7961 93.1391C74.7961 93.6181 77.4981 93.8141 80.8011 93.5751C92.3571 92.7391 100.33 83.7871 99.5611 72.5141C98.9261 63.2131 95.9591 60.0181 78.7961 50.1511C70.8211 45.5671 63.6211 41.8681 62.7961 41.9331C61.9711 41.9971 59.8341 42.5301 58.0461 43.1161ZM21.7961 57.1701C21.7961 60.0061 22.3861 60.9191 25.3451 62.6651C32.6541 66.9781 33.5151 76.2501 27.1921 82.5731C23.9851 85.7801 23.4001 85.9851 18.7391 85.5371C15.3741 85.2141 12.9311 84.3051 11.2921 82.7661C8.48313 80.1271 6.32613 74.4361 7.23613 72.0651C7.57813 71.1731 7.55913 67.8011 7.19413 64.5711C6.55913 58.9591 6.44913 58.7731 4.69913 60.3571C1.49813 63.2541 -0.546869 70.2231 0.129131 75.9311C1.53713 87.8251 13.4591 95.9961 24.3851 92.5561C26.6351 91.8481 34.5431 87.5081 41.9601 82.9111L55.4451 74.5521L56.4471 69.6611C56.9991 66.9701 57.3431 64.7691 57.2141 64.7691C57.0841 64.7691 53.0001 67.2281 48.1371 70.2331C43.2741 73.2381 39.2191 75.3751 39.1251 74.9831C39.0301 74.5901 38.6601 72.0961 38.3021 69.4411C37.5921 64.1831 32.9101 57.9141 27.6711 55.2041C23.1611 52.8721 21.7961 53.3291 21.7961 57.1701ZM78.8691 70.4451C77.1141 75.2981 69.5311 82.7411 63.2961 85.7301C59.4311 87.5831 56.4521 88.1641 50.1701 88.2901C43.5451 88.4221 41.3351 88.8911 38.2031 90.8261L34.3621 93.2001L38.8291 94.5461C45.9631 96.6961 59.0671 95.7271 66.0141 92.5361C73.1511 89.2571 80.6011 82.3801 84.2211 75.7291C86.8741 70.8561 86.9161 70.5601 85.2381 68.7051C82.5401 65.7231 80.3611 66.3181 78.8691 70.4451Z" fill="white"/>
</svg>
