<svg width="210" height="219" viewBox="0 0 210 219" fill="none" xmlns="http://www.w3.org/2000/svg">
<path d="M126.8 175.6H82.8V168.3C82.8 164.3 86.1 161 90.1 161H119.5C123.5 161 126.8 164.3 126.8 168.3V175.6ZM83.8 174.6H125.8V168.3C125.8 164.8 123 162 119.5 162H90.1C86.6 162 83.8 164.8 83.8 168.3V174.6Z" fill="black"/>
<path d="M139.8 185.7H69.7V181.9C69.7 177.9 73 174.6 77 174.6H132.5C136.5 174.6 139.8 177.9 139.8 181.9V185.7ZM70.7 184.7H138.8V181.9C138.8 178.4 136 175.6 132.5 175.6H77C73.5 175.6 70.7 178.4 70.7 181.9V184.7Z" fill="black"/>
<path d="M112.4 161.9H97.2V128.2C95.2 127.4 85.1 122.9 75.6 107.9C57.3 102.9 44.5 94.1 37.5 81.7C27.8 64.7 33 47.4 33.2 46.6L34.1 43.6H59C58.9 40.3 58.8 37 58.8 33.6V33.1H150.8V33.6C150.8 36.9 150.7 40.3 150.6 43.6H175.4L176.3 46.6C176.5 47.3 181.7 64.7 172 81.7C165.1 93.8 152.7 102.5 135 107.6C125.3 123.7 114.5 127.6 112.3 128.3V161.9H112.4ZM98.2 160.9H111.4V127.5L111.8 127.4C111.9 127.4 123.9 124.3 134.3 106.9L134.4 106.7L134.6 106.6C152.1 101.6 164.4 93 171.2 81.1C180.6 64.5 175.6 47.5 175.4 46.8L174.7 44.6H149.6V44.1C149.7 40.8 149.8 37.4 149.8 34.2H59.8C59.8 37.5 59.9 40.9 60 44.1V44.6H34.9L34.2 47C34 47.7 29 64.6 38.4 81.3C45.3 93.4 58 102.1 76.1 107L76.3 107.1L76.4 107.3C86.5 123.5 97.8 127.5 97.9 127.5L98.2 127.6V160.9V160.9ZM71.9 99.1L70.8 98.7C58.1 94.1 49.1 87.2 44 78.2C38 67.8 38.8 57 39.7 51.5L39.8 51.1H60.4V51.6C61.8 69.7 65.5 85.3 71.3 98L71.9 99.1ZM40.6 52.1C39.7 57.6 39.2 67.8 44.8 77.7C49.7 86.2 58.1 92.8 69.9 97.3C64.3 84.8 60.8 69.6 59.4 52.1H40.6V52.1ZM138.5 98.8L139 97.7C144.4 85.2 147.8 69.7 149.1 51.6V51.1H169.7L169.8 51.5C170.8 57 171.5 67.7 165.5 78.2L165.1 78L165.5 78.2C160.5 87 151.8 93.7 139.6 98.3L138.5 98.8ZM150.1 52.1C148.8 69.6 145.5 84.7 140.4 97C151.8 92.5 160 86 164.7 77.7C170.4 67.8 169.8 57.6 168.9 52.1H150.1Z" fill="black"/>
<path d="M111.6 98H99.6V67.8L92.9 69.3L90.5 59.7L103 56.2H111.7V98H111.6ZM100.5 97H110.5V57.2H103L91.7 60.4L93.6 68.1L100.6 66.5V97H100.5Z" fill="black"/>
</svg>
