<svg width="380" height="215" viewBox="0 0 380 215" fill="none" xmlns="http://www.w3.org/2000/svg">
<path fill-rule="evenodd" clip-rule="evenodd" d="M145.877 1.07247C106.703 3.53428 70.3309 14.7932 42.7307 33.0022C30.91 40.8011 15.4976 56.5174 9.83297 66.5499C-3.42266 90.0253 -2.12442 113.52 13.7167 136.826C32.4246 164.353 76.506 187.215 123.941 193.994L132.915 195.276L133.2 204.953L133.486 214.629L163.6 214.366L193.715 214.102L195.645 203.977L197.577 193.85L207.124 192.164C230.66 188.005 257.327 179.573 279.579 169.253C284.878 166.797 289.562 164.786 289.99 164.786C290.418 164.786 299.81 170.402 310.862 177.265L330.956 189.744L346.105 189.47L361.254 189.195L361.515 151.361L361.776 113.528L366.002 109.187C368.326 106.799 371.828 104.018 373.784 103.008C375.741 101.997 377.921 100.472 378.629 99.6184C379.73 98.2924 379.436 97.8122 376.6 96.3078C374.776 95.3404 370.464 91.8993 367.019 88.6614L360.755 82.7753V45.5723V8.37022H345.211H329.666L309.719 20.7908L289.773 33.2114L284.133 30.375C243.066 9.72316 189.36 -1.65932 145.877 1.07247ZM187.257 4.50465C248.264 10.3986 314.11 40.9884 359.605 84.5696L367.098 91.7488L358.692 89.7712C354.069 88.6833 343.331 85.6566 334.83 83.0443C265.033 61.5944 219.635 52.4934 165.819 49.1619C127.138 46.7678 91.9513 50.5188 62.1186 60.2156C40.8023 67.1447 21.8532 77.6286 8.77304 89.7274L2.61187 95.4271L3.31384 90.5045C5.42373 75.7067 12.245 63.4884 26.1288 49.6361C37.4859 38.3054 47.151 31.5606 63.1167 23.8215C99.4934 6.19036 139.793 -0.0802225 187.257 4.50465ZM358.761 45.2913C358.761 72.962 358.502 80.0674 357.515 79.4846C356.83 79.0801 353.576 76.434 350.286 73.6046C337.061 62.234 317.98 48.9437 301.364 39.5298C296.746 36.9126 293.079 34.4219 293.218 33.9945C293.356 33.5671 301.765 28.0746 311.902 21.7901L330.333 10.3628H344.547H358.761V45.2913ZM164.324 51.2112C214.669 53.9779 270.83 64.8393 325.358 82.3569L338.32 86.5203L323.862 87.1978C305.074 88.0775 292.175 90.9498 288.428 95.0873C286.688 97.0082 284.429 97.0381 145.473 96.9962L4.28702 96.9534L11.191 90.4646C34.1945 68.8464 75.3962 54.225 121.584 51.2899C139.46 50.1532 144.899 50.1432 164.324 51.2112ZM354.959 91.0992C365.501 93.2462 376.219 97.0291 376.197 98.5952C376.175 100.067 365.108 104.082 355.271 106.187C344.913 108.403 322.187 108.838 309.902 107.056C300.058 105.628 290.184 102.308 288.955 100.014C286.998 96.3586 295.708 92.1762 309.443 90.1767C321.313 88.4491 344.223 88.9134 354.959 91.0992ZM286.894 100.885C289.302 105.381 304.671 109.183 325.856 110.525L337.323 111.251L332.836 112.645C179.816 160.189 65.3563 157.711 10.0204 105.66C7.14076 102.951 4.78558 100.352 4.78558 99.8834C4.78558 99.4152 68.0365 99.0316 145.344 99.0316C281.346 99.0316 285.934 99.0914 286.894 100.885ZM23.5513 118.96C45.3442 133.533 74.094 143.093 107.987 147.038C124.135 148.918 166.086 148.614 186.759 146.468C232.165 141.755 278.129 131.751 333.335 114.567C350.601 109.192 365.506 105.439 366.328 106.26C367.452 107.382 342.26 128.61 326.853 139.522C256.84 189.112 169.418 206.58 95.3873 185.77C44.2962 171.408 8.14087 140.324 3.22011 106.531L2.4982 101.575L9.19582 107.707C12.8792 111.081 19.3395 116.144 23.5513 118.96ZM359.758 151.834V186.704H344.844H329.93L311.019 175.009L292.108 163.314L300.257 158.658C317.713 148.686 341.75 131.798 353.775 121.057C356.243 118.853 358.598 117.03 359.01 117.007C359.422 116.984 359.758 132.656 359.758 151.834ZM193.746 203.605L191.996 212.607H163.702H135.407V204.388V196.169L159.587 196C172.887 195.909 186.235 195.436 189.252 194.949C192.268 194.464 194.906 194.187 195.116 194.335C195.325 194.482 194.708 198.655 193.746 203.605Z" fill="white"/>
</svg>
